<svg width="140" height="140" viewBox="0 0 140 140" fill="none" xmlns="http://www.w3.org/2000/svg">
<path d="M139.667 0H0V139.5H139.667V0Z" fill="#25247B"/>
<path d="M69.8333 17.4375L53.6485 67.1896L78.5543 75.2724L69.8333 17.4375Z" fill="white"/>
<path d="M69.8333 17.4375L86.018 67.1896L61.1122 75.2724L69.8333 17.4375Z" fill="white"/>
<path d="M119.638 53.5994L67.27 53.5846L67.2774 79.726L119.638 53.5994Z" fill="white"/>
<path d="M119.645 53.592L77.2795 84.3331L61.8801 63.1647L119.645 53.592Z" fill="white"/>
<path d="M20.0217 53.592L62.3873 84.333L77.7866 63.1647L20.0217 53.592Z" fill="white"/>
<path d="M20.0292 53.5994L72.3967 53.5845L72.3893 79.7259L20.0292 53.5994Z" fill="white"/>
<path d="M100.619 112.076L84.428 62.3195L59.5281 70.3981L100.619 112.076Z" fill="white"/>
<path d="M100.623 112.072L58.2464 81.3185L73.6348 60.1623L100.623 112.072Z" fill="white"/>
<path d="M39.0439 112.072L81.4204 81.3185L66.0319 60.1623L39.0439 112.072Z" fill="white"/>
<path d="M39.0481 112.076L55.2387 62.3195L80.1387 70.3981L39.0481 112.076Z" fill="white"/>
<path d="M0 139.5L139.656 139.5L139.656 0L113.656 111L0 139.5Z" fill="black"/>
<path d="M139.656 0H0L3.05176e-05 139.5L26 28.5L139.656 0Z" fill="#C53425"/>
</svg>
