<svg width="225" height="154" viewBox="0 0 225 154" fill="none" xmlns="http://www.w3.org/2000/svg">
<g clip-path="url(#clip0_23_40)">
<path d="M225 0H0V154H225V0Z" fill="white"/>
<path d="M225 0H0V17.1111H225V0Z" fill="#C53425"/>
<path d="M225 68.4444H0V85.5556H225V68.4444Z" fill="#C53425"/>
<path d="M225 136.889H0V154H225V136.889Z" fill="#C53425"/>
<path d="M225 34.2222H0V51.3333H225V34.2222Z" fill="black"/>
<path d="M225 102.667H0V119.778H225V102.667Z" fill="black"/>
<path d="M75 0H0V77H75V0Z" fill="#25247B"/>
<path d="M37.5001 9.625L28.809 37.0868L42.1833 41.5482L37.5001 9.625Z" fill="white"/>
<path d="M37.5001 9.625L46.1912 37.0868L32.817 41.5482L37.5001 9.625Z" fill="white"/>
<path d="M64.2485 29.5771L36.2105 29.757L36.1235 44.0146L64.2485 29.5771Z" fill="white"/>
<path d="M64.2485 29.4857L41.4159 46.5494L33.2292 34.9607L64.2485 29.4857Z" fill="white"/>
<path d="M10.7516 29.4857L33.5842 46.5494L41.7709 34.9607L10.7516 29.4857Z" fill="white"/>
<path d="M10.7516 29.5771L38.7896 29.7571L38.8766 44.0146L10.7516 29.5771Z" fill="white"/>
<path d="M54.0315 61.8098L45.4099 34.3986L31.9662 38.9106L54.0315 61.8098Z" fill="white"/>
<path d="M53.9822 61.8604L31.2778 44.9445L39.5928 33.2079L53.9822 61.8604Z" fill="white"/>
<path d="M21.0178 61.8604L43.7222 44.9445L35.4072 33.2079L21.0178 61.8604Z" fill="white"/>
<path d="M20.9686 61.8098L29.5902 34.3986L43.034 38.9106L20.9686 61.8098Z" fill="white"/>
</g>
<defs>
<clipPath id="clip0_23_40">
<rect width="225" height="154" rx="18" fill="white"/>
</clipPath>
</defs>
</svg>
